<svg version="1.0" xmlns="http://www.w3.org/2000/svg"
 width="854.000000pt" height="558.000000pt" viewBox="0 0 854.000000 558.000000"
 preserveAspectRatio="xMidYMid meet">
<metadata>
Created by potrace 1.16, written by Peter Selinger 2001-2019
</metadata>
<g transform="translate(-85.000000,791.000000) scale(0.100000,-0.100000)"
fill="currentColor">
<path d="M1337 7422 l-487 -487 0 -2210 0 -2210 93 -93 92 -92 815 0 815 1
445 650 c245 357 447 654 448 659 2 6 -119 322 -268 703 l-272 692 -224 223
-224 222 540 0 c297 0 540 -2 540 -5 0 -2 -63 -90 -140 -195 -77 -104 -140
-194 -140 -200 0 -5 237 -616 526 -1357 384 -984 533 -1354 551 -1370 l24 -23
492 0 492 0 488 488 487 487 0 866 0 865 -168 220 -168 219 253 3 c139 1 368
1 508 0 l254 -3 -169 -220 -169 -220 -1 -1260 0 -1260 93 -93 92 -92 1125 0
1125 0 93 93 92 92 0 2605 0 2605 -93 93 -92 92 -1865 0 -1865 0 -93 -93 -92
-92 0 -802 0 -802 -85 -88 -85 -88 -85 88 -85 88 0 802 0 802 -93 93 -92 92
-1470 0 -1470 0 -488 -488z"/>
</g>
</svg>