<svg version="1.0" xmlns="http://www.w3.org/2000/svg"
 width="1890.000000pt" height="338.000000pt" viewBox="0 0 1890.000000 338.000000"
 preserveAspectRatio="xMidYMid meet">
<metadata>
Created by potrace 1.16, written by Peter Selinger 2001-2019
</metadata>
<g transform="translate(-15.000000,355.000000) scale(0.100000,-0.100000)"
fill="currentColor">
<path d="M9072 3247 l-302 -302 0 -1085 0 -1085 303 -303 302 -302 1085 0
1085 0 298 298 297 297 0 501 0 500 -28 27 -28 27 -740 0 -740 0 -30 -52 -30
-53 -84 0 -84 0 -43 71 -43 72 43 73 44 74 81 3 81 3 32 -56 31 -55 741 0 741
0 28 27 28 27 0 495 0 496 -303 303 -302 302 -1080 0 -1080 0 -303 -303z"/>
<path d="M447 3242 l-297 -297 0 -1356 0 -1355 33 -32 33 -32 541 0 542 0 273
397 c150 218 277 404 281 413 6 12 -39 139 -158 441 l-167 424 -74 75 c-41 42
-74 79 -74 83 0 4 77 7 170 7 94 0 170 -3 170 -7 0 -3 -25 -40 -56 -81 l-56
-74 288 -737 c158 -405 305 -782 327 -839 l40 -102 326 0 326 0 303 303 302
302 0 529 0 529 -55 74 c-31 40 -58 80 -61 88 -5 13 17 15 155 15 109 0 161
-4 161 -11 0 -6 -27 -46 -60 -88 l-60 -78 0 -799 0 -800 33 -32 33 -32 755 0
755 0 37 38 37 38 0 1615 0 1615 -33 32 -33 32 -1195 0 -1195 0 -27 -28 -27
-28 0 -505 c0 -480 -1 -505 -19 -529 -19 -24 -20 -24 -40 -6 -21 19 -21 26
-21 530 l0 510 -27 28 -27 28 -930 0 -931 0 -298 -298z"/>
<path d="M5352 3507 l-32 -33 0 -1350 0 -1349 303 -303 302 -302 1080 0 1080
0 303 303 302 302 0 1356 0 1355 -28 27 -28 27 -764 0 -764 0 -28 -27 -28 -27
0 -765 0 -765 55 54 55 54 27 -27 28 -27 -78 -78 -77 -77 75 -75 75 -75 -25
-25 -25 -25 -75 75 -75 74 -73 -72 c-40 -39 -77 -72 -82 -72 -5 0 -19 10 -32
22 l-24 22 78 78 78 78 -75 75 -74 74 24 26 24 25 58 -57 58 -57 0 765 0 765
-33 32 -33 32 -760 0 -760 0 -32 -33z"/>
<path d="M12257 3512 l-27 -28 0 -1629 0 -1629 27 -28 27 -28 766 0 766 0 32
33 32 33 0 530 c0 503 1 532 18 548 18 15 20 15 35 -2 15 -17 17 -68 17 -548
l0 -530 33 -32 33 -32 760 0 760 0 32 33 32 33 0 634 0 635 -312 312 -313 313
281 0 280 0 32 33 32 33 0 645 0 645 -28 27 -28 27 -509 0 -510 0 -307 -307
-308 -308 0 281 0 280 -28 27 -28 27 -785 0 -785 0 -27 -28z"/>
<path d="M15977 3242 l-297 -297 0 -1360 0 -1359 27 -28 27 -28 766 0 766 0
27 28 27 28 0 729 0 730 -82 82 -83 83 105 105 105 105 102 -102 103 -103 -85
-85 -85 -85 0 -726 0 -725 33 -32 33 -32 760 0 760 0 32 33 32 33 0 1350 0
1349 -303 303 -302 302 -1085 0 -1085 0 -298 -298z"/>
</g>
</svg>